<?xml version="1.0" encoding="utf-8"?>
<!-- Generator: Adobe Illustrator 19.1.0, SVG Export Plug-In . SVG Version: 6.00 Build 0)  -->
<!DOCTYPE svg PUBLIC "-//W3C//DTD SVG 1.1//EN" "http://www.w3.org/Graphics/SVG/1.1/DTD/svg11.dtd">
<svg version="1.1" id="Layer_1" xmlns="http://www.w3.org/2000/svg" xmlns:xlink="http://www.w3.org/1999/xlink" x="0px" y="0px"
	 viewBox="0 0 106 74" enable-background="new 0 0 106 74" xml:space="preserve">
<g>
	<g>
		<polygon points="26,44 23,44 23,47 25,47 25,46 26,46 		"/>
		<path d="M58,46h-4v-2h4V46z M50,46h-4v-2h4V46z M42,46h-4v-2h4V46z M34,46h-4v-2h4V46z"/>
		<polygon points="65,44 62,44 62,46 63,46 63,47 65,47 		"/>
		<path d="M65,54h-2v-4h2V54z M65,61h-2v-4h2V61z M65,68h-2v-4h2V68z"/>
		<polygon points="65,71 63,71 63,72 62,72 62,74 65,74 		"/>
		<path d="M58,74h-4v-2h4V74z M50,74h-4v-2h4V74z M42,74h-4v-2h4V74z M34,74h-4v-2h4V74z"/>
		<polygon points="25,71 23,71 23,74 26,74 26,72 25,72 		"/>
		<path d="M25,53.9h-2v-3.4h2V53.9z M25,60.7h-2v-3.4h2V60.7z M25,68h-2v-4h2V68z"/>
	</g>
	<rect x="41" y="28" width="24" height="18"/>
	<circle fill="#F73737" cx="64" cy="45" r="3"/>
	<polygon points="51,48 55,48 55,54 57,54 53,59 49,54 51,54 	"/>
</g>
</svg>
