<?xml version="1.0" encoding="utf-8"?>
<!-- Generator: Adobe Illustrator 19.1.0, SVG Export Plug-In . SVG Version: 6.00 Build 0)  -->
<!DOCTYPE svg PUBLIC "-//W3C//DTD SVG 1.1//EN" "http://www.w3.org/Graphics/SVG/1.1/DTD/svg11.dtd">
<svg version="1.1" id="Layer_1" xmlns="http://www.w3.org/2000/svg" xmlns:xlink="http://www.w3.org/1999/xlink" x="0px" y="0px"
	 viewBox="0 0 106 74" enable-background="new 0 0 106 74" xml:space="preserve">
<g>
	<g>
		<polygon points="35,28 32,28 32,31 34,31 34,30 35,30 		"/>
		<path d="M67,30h-4v-2h4V30z M59,30h-4v-2h4V30z M51,30h-4v-2h4V30z M43,30h-4v-2h4V30z"/>
		<polygon points="74,28 71,28 71,30 72,30 72,31 74,31 		"/>
		<path d="M74,38h-2v-4h2V38z M74,45h-2v-4h2V45z M74,52h-2v-4h2V52z"/>
		<polygon points="74,55 72,55 72,56 71,56 71,58 74,58 		"/>
		<path d="M67,58h-4v-2h4V58z M59,58h-4v-2h4V58z M51,58h-4v-2h4V58z M43,58h-4v-2h4V58z"/>
		<polygon points="34,55 32,55 32,58 35,58 35,56 34,56 		"/>
		<path d="M34,37.9h-2v-3.4h2V37.9z M34,44.7h-2v-3.4h2V44.7z M34,52h-2v-4h2V52z"/>
	</g>
	<rect x="41" y="28" width="24" height="18"/>
	<circle fill="#F73737" cx="53" cy="29" r="3"/>
	<polygon points="51,47 55,47 55,51 57,51 53,56 49,51 51,51 	"/>
</g>
</svg>
