<?xml version="1.0" encoding="utf-8"?>
<!-- Generator: Adobe Illustrator 19.1.0, SVG Export Plug-In . SVG Version: 6.00 Build 0)  -->
<!DOCTYPE svg PUBLIC "-//W3C//DTD SVG 1.1//EN" "http://www.w3.org/Graphics/SVG/1.1/DTD/svg11.dtd">
<svg version="1.1" id="Layer_1" xmlns="http://www.w3.org/2000/svg" xmlns:xlink="http://www.w3.org/1999/xlink" x="0px" y="0px"
	 viewBox="0 0 106 74" enable-background="new 0 0 106 74" xml:space="preserve">
<g>
	<g>
		<polygon points="35,44 32,44 32,47 34,47 34,46 35,46 		"/>
		<path d="M67,46h-4v-2h4V46z M59,46h-4v-2h4V46z M51,46h-4v-2h4V46z M43,46h-4v-2h4V46z"/>
		<polygon points="74,44 71,44 71,46 72,46 72,47 74,47 		"/>
		<path d="M74,54h-2v-4h2V54z M74,61h-2v-4h2V61z M74,68h-2v-4h2V68z"/>
		<polygon points="74,71 72,71 72,72 71,72 71,74 74,74 		"/>
		<path d="M67,74h-4v-2h4V74z M59,74h-4v-2h4V74z M51,74h-4v-2h4V74z M43,74h-4v-2h4V74z"/>
		<polygon points="34,71 32,71 32,74 35,74 35,72 34,72 		"/>
		<path d="M34,53.9h-2v-3.4h2V53.9z M34,60.7h-2v-3.4h2V60.7z M34,68h-2v-4h2V68z"/>
	</g>
	<rect x="41" y="28" width="24" height="18"/>
	<circle fill="#F73737" cx="53" cy="45" r="3"/>
	<polygon points="51,48 55,48 55,54 57,54 53,59 49,54 51,54 	"/>
</g>
</svg>
