<?xml version="1.0" encoding="utf-8"?>
<!-- Generator: Adobe Illustrator 19.1.0, SVG Export Plug-In . SVG Version: 6.00 Build 0)  -->
<!DOCTYPE svg PUBLIC "-//W3C//DTD SVG 1.1//EN" "http://www.w3.org/Graphics/SVG/1.1/DTD/svg11.dtd">
<svg version="1.1" id="Layer_1" xmlns="http://www.w3.org/2000/svg" xmlns:xlink="http://www.w3.org/1999/xlink" x="0px" y="0px"
	 viewBox="0 0 106 74" enable-background="new 0 0 106 74" xml:space="preserve">
<g>
	<g>
		<polygon points="26,28 23,28 23,31 25,31 25,30 26,30 		"/>
		<path d="M58,30h-4v-2h4V30z M50,30h-4v-2h4V30z M42,30h-4v-2h4V30z M34,30h-4v-2h4V30z"/>
		<polygon points="65,28 62,28 62,30 63,30 63,31 65,31 		"/>
		<path d="M65,38h-2v-4h2V38z M65,45h-2v-4h2V45z M65,52h-2v-4h2V52z"/>
		<polygon points="65,55 63,55 63,56 62,56 62,58 65,58 		"/>
		<path d="M58,58h-4v-2h4V58z M50,58h-4v-2h4V58z M42,58h-4v-2h4V58z M34,58h-4v-2h4V58z"/>
		<polygon points="25,55 23,55 23,58 26,58 26,56 25,56 		"/>
		<path d="M25,37.9h-2v-3.4h2V37.9z M25,44.7h-2v-3.4h2V44.7z M25,52h-2v-4h2V52z"/>
	</g>
	<rect x="41" y="28" width="24" height="18"/>
	<circle fill="#F73737" cx="64" cy="29" r="3"/>
	<polygon points="55,47 51,47 51,51 49,51 53,56 57,51 55,51 	"/>
</g>
</svg>
