<?xml version="1.0" encoding="utf-8"?>
<!-- Generator: Adobe Illustrator 19.1.0, SVG Export Plug-In . SVG Version: 6.00 Build 0)  -->
<!DOCTYPE svg PUBLIC "-//W3C//DTD SVG 1.1//EN" "http://www.w3.org/Graphics/SVG/1.1/DTD/svg11.dtd">
<svg version="1.1" id="Layer_1" xmlns="http://www.w3.org/2000/svg" xmlns:xlink="http://www.w3.org/1999/xlink" x="0px" y="0px"
	 viewBox="0 0 106 74" enable-background="new 0 0 106 74" xml:space="preserve">
<g>
	<g>
		<polygon points="44,44 41,44 41,47 43,47 43,46 44,46 		"/>
		<path d="M76,46h-4v-2h4V46z M68,46h-4v-2h4V46z M60,46h-4v-2h4V46z M52,46h-4v-2h4V46z"/>
		<polygon points="83,44 80,44 80,46 81,46 81,47 83,47 		"/>
		<path d="M83,54h-2v-4h2V54z M83,61h-2v-4h2V61z M83,68h-2v-4h2V68z"/>
		<polygon points="83,71 81,71 81,72 80,72 80,74 83,74 		"/>
		<path d="M76,74h-4v-2h4V74z M68,74h-4v-2h4V74z M60,74h-4v-2h4V74z M52,74h-4v-2h4V74z"/>
		<polygon points="43,71 41,71 41,74 44,74 44,72 43,72 		"/>
		<path d="M43,53.9h-2v-3.4h2V53.9z M43,60.7h-2v-3.4h2V60.7z M43,68h-2v-4h2V68z"/>
	</g>
	<rect x="41" y="28" width="24" height="18"/>
	<circle fill="#F73737" cx="42" cy="45" r="3"/>
	<polygon points="51,48 55,48 55,54 57,54 53,59 49,54 51,54 	"/>
</g>
</svg>
