<?xml version="1.0" encoding="utf-8"?>
<!-- Generator: Adobe Illustrator 19.1.0, SVG Export Plug-In . SVG Version: 6.00 Build 0)  -->
<!DOCTYPE svg PUBLIC "-//W3C//DTD SVG 1.1//EN" "http://www.w3.org/Graphics/SVG/1.1/DTD/svg11.dtd">
<svg version="1.1" id="Layer_1" xmlns="http://www.w3.org/2000/svg" xmlns:xlink="http://www.w3.org/1999/xlink" x="0px" y="0px"
	 viewBox="0 0 106 74" enable-background="new 0 0 106 74" xml:space="preserve">
<g>
	<g>
		<polygon points="62,52 65,52 65,49 63,49 63,50 62,50 		"/>
		<path d="M30,50h4v2h-4V50z M38,50h4v2h-4V50z M46,50h4v2h-4V50z M54,50h4v2h-4V50z"/>
		<polygon points="23,52 26,52 26,50 25,50 25,49 23,49 		"/>
		<path d="M23,42h2v4h-2V42z M23,35h2v4h-2V35z M23,28h2v4h-2V28z"/>
		<polygon points="23,25 25,25 25,24 26,24 26,22 23,22 		"/>
		<path d="M30,22h4v2h-4V22z M38,22h4v2h-4V22z M46,22h4v2h-4V22z M54,22h4v2h-4V22z"/>
		<polygon points="63,25 65,25 65,22 62,22 62,24 63,24 		"/>
		<path d="M63,42.1h2v3.4h-2V42.1z M63,35.3h2v3.4h-2V35.3z M63,28h2v4h-2V28z"/>
	</g>
	<rect x="41" y="28" width="24" height="18"/>
	<circle fill="#F73737" cx="64" cy="37" r="3"/>
	<polygon points="38,39 38,35 32,35 32,33 27,37 32,41 32,39 	"/>
</g>
</svg>
