<?xml version="1.0" encoding="utf-8"?>
<!-- Generator: Adobe Illustrator 19.1.0, SVG Export Plug-In . SVG Version: 6.00 Build 0)  -->
<!DOCTYPE svg PUBLIC "-//W3C//DTD SVG 1.1//EN" "http://www.w3.org/Graphics/SVG/1.1/DTD/svg11.dtd">
<svg version="1.1" id="Layer_1" xmlns="http://www.w3.org/2000/svg" xmlns:xlink="http://www.w3.org/1999/xlink" x="0px" y="0px"
	 viewBox="0 0 106 74" enable-background="new 0 0 106 74" xml:space="preserve">
<g>
	<g>
		<polygon points="62,46 65,46 65,43 63,43 63,44 62,44 		"/>
		<path d="M30,44h4v2h-4V44z M38,44h4v2h-4V44z M46,44h4v2h-4V44z M54,44h4v2h-4V44z"/>
		<polygon points="23,46 26,46 26,44 25,44 25,43 23,43 		"/>
		<path d="M23,36h2v4h-2V36z M23,29h2v4h-2V29z M23,22h2v4h-2V22z"/>
		<polygon points="23,19 25,19 25,18 26,18 26,16 23,16 		"/>
		<path d="M30,16h4v2h-4V16z M38,16h4v2h-4V16z M46,16h4v2h-4V16z M54,16h4v2h-4V16z"/>
		<polygon points="63,19 65,19 65,16 62,16 62,18 63,18 		"/>
		<path d="M63,36.1h2v3.4h-2V36.1z M63,29.3h2v3.4h-2V29.3z M63,22h2v4h-2V22z"/>
	</g>
	<rect x="41" y="28" width="24" height="18"/>
	<circle fill="#F73737" cx="64" cy="45" r="3"/>
	<polygon points="38,39 38,35 32,35 32,33 27,37 32,41 32,39 	"/>
</g>
</svg>
