<?xml version="1.0" encoding="utf-8"?>
<!-- Generator: Adobe Illustrator 19.1.0, SVG Export Plug-In . SVG Version: 6.00 Build 0)  -->
<!DOCTYPE svg PUBLIC "-//W3C//DTD SVG 1.1//EN" "http://www.w3.org/Graphics/SVG/1.1/DTD/svg11.dtd">
<svg version="1.1" id="Layer_1" xmlns="http://www.w3.org/2000/svg" xmlns:xlink="http://www.w3.org/1999/xlink" x="0px" y="0px"
	 viewBox="0 0 106 74" enable-background="new 0 0 106 74" xml:space="preserve">
<g>
	<g>
		<polygon points="62,58 65,58 65,55 63,55 63,56 62,56 		"/>
		<path d="M30,56h4v2h-4V56z M38,56h4v2h-4V56z M46,56h4v2h-4V56z M54,56h4v2h-4V56z"/>
		<polygon points="23,58 26,58 26,56 25,56 25,55 23,55 		"/>
		<path d="M23,48h2v4h-2V48z M23,41h2v4h-2V41z M23,34h2v4h-2V34z"/>
		<polygon points="23,31 25,31 25,30 26,30 26,28 23,28 		"/>
		<path d="M30,28h4v2h-4V28z M38,28h4v2h-4V28z M46,28h4v2h-4V28z M54,28h4v2h-4V28z"/>
		<polygon points="63,31 65,31 65,28 62,28 62,30 63,30 		"/>
		<path d="M63,48.1h2v3.4h-2V48.1z M63,41.3h2v3.4h-2V41.3z M63,34h2v4h-2V34z"/>
	</g>
	<rect x="41" y="28" width="24" height="18"/>
	<circle fill="#F73737" cx="64" cy="29" r="3"/>
	<polygon points="38,39 38,35 32,35 32,33 27,37 32,41 32,39 	"/>
</g>
</svg>
