<?xml version="1.0" encoding="utf-8"?>
<!-- Generator: Adobe Illustrator 19.1.0, SVG Export Plug-In . SVG Version: 6.00 Build 0)  -->
<!DOCTYPE svg PUBLIC "-//W3C//DTD SVG 1.1//EN" "http://www.w3.org/Graphics/SVG/1.1/DTD/svg11.dtd">
<svg version="1.1" id="Layer_1" xmlns="http://www.w3.org/2000/svg" xmlns:xlink="http://www.w3.org/1999/xlink" x="0px" y="0px"
	 viewBox="0 0 106 74" enable-background="new 0 0 106 74" xml:space="preserve">
<g>
	<g>
		<polygon points="40,52 43,52 43,49 41,49 41,50 40,50 		"/>
		<path d="M8,50h4v2H8V50z M16,50h4v2h-4V50z M24,50h4v2h-4V50z M32,50h4v2h-4V50z"/>
		<polygon points="1,52 4,52 4,50 3,50 3,49 1,49 		"/>
		<path d="M1,42h2v4H1V42z M1,35h2v4H1V35z M1,28h2v4H1V28z"/>
		<polygon points="1,25 3,25 3,24 4,24 4,22 1,22 		"/>
		<path d="M8,22h4v2H8V22z M16,22h4v2h-4V22z M24,22h4v2h-4V22z M32,22h4v2h-4V22z"/>
		<polygon points="41,25 43,25 43,22 40,22 40,24 41,24 		"/>
		<path d="M41,42.1h2v3.4h-2V42.1z M41,35.3h2v3.4h-2V35.3z M41,28h2v4h-2V28z"/>
	</g>
	<rect x="41" y="28" width="24" height="18"/>
	<circle fill="#F73737" cx="42" cy="37" r="3"/>
	<polygon points="38,39 38,35 32,35 32,33 27,37 32,41 32,39 	"/>
</g>
</svg>
