<?xml version="1.0" encoding="utf-8"?>
<!-- Generator: Adobe Illustrator 19.1.0, SVG Export Plug-In . SVG Version: 6.00 Build 0)  -->
<!DOCTYPE svg PUBLIC "-//W3C//DTD SVG 1.1//EN" "http://www.w3.org/Graphics/SVG/1.1/DTD/svg11.dtd">
<svg version="1.1" id="Layer_1" xmlns="http://www.w3.org/2000/svg" xmlns:xlink="http://www.w3.org/1999/xlink" x="0px" y="0px"
	 viewBox="0 0 106 74" enable-background="new 0 0 106 74" xml:space="preserve">
<g>
	<g>
		<polygon points="40,58 43,58 43,55 41,55 41,56 40,56 		"/>
		<path d="M8,56h4v2H8V56z M16,56h4v2h-4V56z M24,56h4v2h-4V56z M32,56h4v2h-4V56z"/>
		<polygon points="1,58 4,58 4,56 3,56 3,55 1,55 		"/>
		<path d="M1,48h2v4H1V48z M1,41h2v4H1V41z M1,34h2v4H1V34z"/>
		<polygon points="1,31 3,31 3,30 4,30 4,28 1,28 		"/>
		<path d="M8,28h4v2H8V28z M16,28h4v2h-4V28z M24,28h4v2h-4V28z M32,28h4v2h-4V28z"/>
		<polygon points="41,31 43,31 43,28 40,28 40,30 41,30 		"/>
		<path d="M41,48.1h2v3.4h-2V48.1z M41,41.3h2v3.4h-2V41.3z M41,34h2v4h-2V34z"/>
	</g>
	<rect x="41" y="28" width="24" height="18"/>
	<circle fill="#F73737" cx="42" cy="29" r="3"/>
	<polygon points="38,39 38,35 32,35 32,33 27,37 32,41 32,39 	"/>
</g>
</svg>
