<?xml version="1.0" encoding="utf-8"?>
<!-- Generator: Adobe Illustrator 19.1.0, SVG Export Plug-In . SVG Version: 6.00 Build 0)  -->
<!DOCTYPE svg PUBLIC "-//W3C//DTD SVG 1.1//EN" "http://www.w3.org/Graphics/SVG/1.1/DTD/svg11.dtd">
<svg version="1.1" id="Layer_1" xmlns="http://www.w3.org/2000/svg" xmlns:xlink="http://www.w3.org/1999/xlink" x="0px" y="0px"
	 viewBox="0 0 106 74" enable-background="new 0 0 106 74" xml:space="preserve">
<g>
	<g>
		<polygon points="40,46 43,46 43,43 41,43 41,44 40,44 		"/>
		<path d="M8,44h4v2H8V44z M16,44h4v2h-4V44z M24,44h4v2h-4V44z M32,44h4v2h-4V44z"/>
		<polygon points="1,46 4,46 4,44 3,44 3,43 1,43 		"/>
		<path d="M1,36h2v4H1V36z M1,29h2v4H1V29z M1,22h2v4H1V22z"/>
		<polygon points="1,19 3,19 3,18 4,18 4,16 1,16 		"/>
		<path d="M8,16h4v2H8V16z M16,16h4v2h-4V16z M24,16h4v2h-4V16z M32,16h4v2h-4V16z"/>
		<polygon points="41,19 43,19 43,16 40,16 40,18 41,18 		"/>
		<path d="M41,36.1h2v3.4h-2V36.1z M41,29.3h2v3.4h-2V29.3z M41,22h2v4h-2V22z"/>
	</g>
	<rect x="41" y="28" width="24" height="18"/>
	<circle fill="#F73737" cx="42" cy="45" r="3"/>
	<polygon points="38,39 38,35 32,35 32,33 27,37 32,41 32,39 	"/>
</g>
</svg>
