<?xml version="1.0" encoding="utf-8"?>
<!-- Generator: Adobe Illustrator 19.1.0, SVG Export Plug-In . SVG Version: 6.00 Build 0)  -->
<!DOCTYPE svg PUBLIC "-//W3C//DTD SVG 1.1//EN" "http://www.w3.org/Graphics/SVG/1.1/DTD/svg11.dtd">
<svg version="1.1" id="Layer_1" xmlns="http://www.w3.org/2000/svg" xmlns:xlink="http://www.w3.org/1999/xlink" x="0px" y="0px"
	 viewBox="0 0 106 74" enable-background="new 0 0 106 74" xml:space="preserve">
<g>
	<g>
		<polygon points="44,52 41,52 41,49 43,49 43,50 44,50 		"/>
		<path d="M76,52h-4v-2h4V52z M68,52h-4v-2h4V52z M60,52h-4v-2h4V52z M52,52h-4v-2h4V52z"/>
		<polygon points="83,52 80,52 80,50 81,50 81,49 83,49 		"/>
		<path d="M83,46h-2v-4h2V46z M83,39h-2v-4h2V39z M83,32h-2v-4h2V32z"/>
		<polygon points="83,25 81,25 81,24 80,24 80,22 83,22 		"/>
		<path d="M76,24h-4v-2h4V24z M68,24h-4v-2h4V24z M60,24h-4v-2h4V24z M52,24h-4v-2h4V24z"/>
		<polygon points="43,25 41,25 41,22 44,22 44,24 43,24 		"/>
		<path d="M43,45.6h-2v-3.4h2V45.6z M43,38.7h-2v-3.4h2V38.7z M43,32h-2v-4h2V32z"/>
	</g>
	<rect x="41" y="28" width="24" height="18"/>
	<circle fill="#F73737" cx="42" cy="37" r="3"/>
	<polygon points="68,39 68,35 74,35 74,33 79,37 74,41 74,39 	"/>
</g>
</svg>
