<?xml version="1.0" encoding="utf-8"?>
<!-- Generator: Adobe Illustrator 19.1.0, SVG Export Plug-In . SVG Version: 6.00 Build 0)  -->
<!DOCTYPE svg PUBLIC "-//W3C//DTD SVG 1.1//EN" "http://www.w3.org/Graphics/SVG/1.1/DTD/svg11.dtd">
<svg version="1.1" id="Layer_1" xmlns="http://www.w3.org/2000/svg" xmlns:xlink="http://www.w3.org/1999/xlink" x="0px" y="0px"
	 viewBox="0 0 106 74" enable-background="new 0 0 106 74" xml:space="preserve">
<g>
	<g>
		<polygon points="66,58 63,58 63,55 65,55 65,56 66,56 		"/>
		<path d="M98,58h-4v-2h4V58z M90,58h-4v-2h4V58z M82,58h-4v-2h4V58z M74,58h-4v-2h4V58z"/>
		<polygon points="105,58 102,58 102,56 103,56 103,55 105,55 		"/>
		<path d="M105,52h-2v-4h2V52z M105,45h-2v-4h2V45z M105,38h-2v-4h2V38z"/>
		<polygon points="105,31 103,31 103,30 102,30 102,28 105,28 		"/>
		<path d="M98,30h-4v-2h4V30z M90,30h-4v-2h4V30z M82,30h-4v-2h4V30z M74,30h-4v-2h4V30z"/>
		<polygon points="65,31 63,31 63,28 66,28 66,30 65,30 		"/>
		<path d="M65,51.6h-2v-3.4h2V51.6z M65,44.7h-2v-3.4h2V44.7z M65,38h-2v-4h2V38z"/>
	</g>
	<rect x="41" y="28" width="24" height="18"/>
	<circle fill="#F73737" cx="64" cy="29" r="3"/>
	<polygon points="68,39 68,35 74,35 74,33 79,37 74,41 74,39 	"/>
</g>
</svg>
