<?xml version="1.0" encoding="utf-8"?>
<!-- Generator: Adobe Illustrator 19.1.0, SVG Export Plug-In . SVG Version: 6.00 Build 0)  -->
<!DOCTYPE svg PUBLIC "-//W3C//DTD SVG 1.1//EN" "http://www.w3.org/Graphics/SVG/1.1/DTD/svg11.dtd">
<svg version="1.1" id="Layer_1" xmlns="http://www.w3.org/2000/svg" xmlns:xlink="http://www.w3.org/1999/xlink" x="0px" y="0px"
	 viewBox="0 0 106 74" enable-background="new 0 0 106 74" xml:space="preserve">
<g>
	<g>
		<polygon points="66,52 63,52 63,49 65,49 65,50 66,50 		"/>
		<path d="M98,52h-4v-2h4V52z M90,52h-4v-2h4V52z M82,52h-4v-2h4V52z M74,52h-4v-2h4V52z"/>
		<polygon points="105,52 102,52 102,50 103,50 103,49 105,49 		"/>
		<path d="M105,46h-2v-4h2V46z M105,39h-2v-4h2V39z M105,32h-2v-4h2V32z"/>
		<polygon points="105,25 103,25 103,24 102,24 102,22 105,22 		"/>
		<path d="M98,24h-4v-2h4V24z M90,24h-4v-2h4V24z M82,24h-4v-2h4V24z M74,24h-4v-2h4V24z"/>
		<polygon points="65,25 63,25 63,22 66,22 66,24 65,24 		"/>
		<path d="M65,45.6h-2v-3.4h2V45.6z M65,38.7h-2v-3.4h2V38.7z M65,32h-2v-4h2V32z"/>
	</g>
	<rect x="41" y="28" width="24" height="18"/>
	<circle fill="#F73737" cx="64" cy="37" r="3"/>
	<polygon points="68,39 68,35 74,35 74,33 79,37 74,41 74,39 	"/>
</g>
</svg>
