<?xml version="1.0" encoding="utf-8"?>
<!-- Generator: Adobe Illustrator 19.1.0, SVG Export Plug-In . SVG Version: 6.00 Build 0)  -->
<!DOCTYPE svg PUBLIC "-//W3C//DTD SVG 1.1//EN" "http://www.w3.org/Graphics/SVG/1.1/DTD/svg11.dtd">
<svg version="1.1" id="Layer_1" xmlns="http://www.w3.org/2000/svg" xmlns:xlink="http://www.w3.org/1999/xlink" x="0px" y="0px"
	 viewBox="0 0 106 74" enable-background="new 0 0 106 74" xml:space="preserve">
<g>
	<g>
		<polygon points="44,46 41,46 41,43 43,43 43,44 44,44 		"/>
		<path d="M76,46h-4v-2h4V46z M68,46h-4v-2h4V46z M60,46h-4v-2h4V46z M52,46h-4v-2h4V46z"/>
		<polygon points="83,46 80,46 80,44 81,44 81,43 83,43 		"/>
		<path d="M83,40h-2v-4h2V40z M83,33h-2v-4h2V33z M83,26h-2v-4h2V26z"/>
		<polygon points="83,19 81,19 81,18 80,18 80,16 83,16 		"/>
		<path d="M76,18h-4v-2h4V18z M68,18h-4v-2h4V18z M60,18h-4v-2h4V18z M52,18h-4v-2h4V18z"/>
		<polygon points="43,19 41,19 41,16 44,16 44,18 43,18 		"/>
		<path d="M43,39.6h-2v-3.4h2V39.6z M43,32.7h-2v-3.4h2V32.7z M43,26h-2v-4h2V26z"/>
	</g>
	<rect x="41" y="28" width="24" height="18"/>
	<circle fill="#F73737" cx="42" cy="45" r="3"/>
	<polygon points="68,39 68,35 74,35 74,33 79,37 74,41 74,39 	"/>
</g>
</svg>
