<?xml version="1.0" encoding="utf-8"?>
<!-- Generator: Adobe Illustrator 19.1.0, SVG Export Plug-In . SVG Version: 6.00 Build 0)  -->
<!DOCTYPE svg PUBLIC "-//W3C//DTD SVG 1.1//EN" "http://www.w3.org/Graphics/SVG/1.1/DTD/svg11.dtd">
<svg version="1.1" id="Layer_1" xmlns="http://www.w3.org/2000/svg" xmlns:xlink="http://www.w3.org/1999/xlink" x="0px" y="0px"
	 viewBox="0 0 106 74" enable-background="new 0 0 106 74" xml:space="preserve">
<g>
	<g>
		<polygon points="44,58 41,58 41,55 43,55 43,56 44,56 		"/>
		<path d="M76,58h-4v-2h4V58z M68,58h-4v-2h4V58z M60,58h-4v-2h4V58z M52,58h-4v-2h4V58z"/>
		<polygon points="83,58 80,58 80,56 81,56 81,55 83,55 		"/>
		<path d="M83,52h-2v-4h2V52z M83,45h-2v-4h2V45z M83,38h-2v-4h2V38z"/>
		<polygon points="83,31 81,31 81,30 80,30 80,28 83,28 		"/>
		<path d="M76,30h-4v-2h4V30z M68,30h-4v-2h4V30z M60,30h-4v-2h4V30z M52,30h-4v-2h4V30z"/>
		<polygon points="43,31 41,31 41,28 44,28 44,30 43,30 		"/>
		<path d="M43,51.6h-2v-3.4h2V51.6z M43,44.7h-2v-3.4h2V44.7z M43,38h-2v-4h2V38z"/>
	</g>
	<rect x="41" y="28" width="24" height="18"/>
	<circle fill="#F73737" cx="42" cy="29" r="3"/>
	<polygon points="68,39 68,35 74,35 74,33 79,37 74,41 74,39 	"/>
</g>
</svg>
