<?xml version="1.0" encoding="utf-8"?>
<!-- Generator: Adobe Illustrator 19.1.0, SVG Export Plug-In . SVG Version: 6.00 Build 0)  -->
<!DOCTYPE svg PUBLIC "-//W3C//DTD SVG 1.1//EN" "http://www.w3.org/Graphics/SVG/1.1/DTD/svg11.dtd">
<svg version="1.1" id="Layer_1" xmlns="http://www.w3.org/2000/svg" xmlns:xlink="http://www.w3.org/1999/xlink" x="0px" y="0px"
	 viewBox="0 0 106 74" enable-background="new 0 0 106 74" xml:space="preserve">
<g>
	<g>
		<polygon points="66,46 63,46 63,43 65,43 65,44 66,44 		"/>
		<path d="M98,46h-4v-2h4V46z M90,46h-4v-2h4V46z M82,46h-4v-2h4V46z M74,46h-4v-2h4V46z"/>
		<polygon points="105,46 102,46 102,44 103,44 103,43 105,43 		"/>
		<path d="M105,40h-2v-4h2V40z M105,33h-2v-4h2V33z M105,26h-2v-4h2V26z"/>
		<polygon points="105,19 103,19 103,18 102,18 102,16 105,16 		"/>
		<path d="M98,18h-4v-2h4V18z M90,18h-4v-2h4V18z M82,18h-4v-2h4V18z M74,18h-4v-2h4V18z"/>
		<polygon points="65,19 63,19 63,16 66,16 66,18 65,18 		"/>
		<path d="M65,39.6h-2v-3.4h2V39.6z M65,32.7h-2v-3.4h2V32.7z M65,26h-2v-4h2V26z"/>
	</g>
	<rect x="41" y="28" width="24" height="18"/>
	<circle fill="#F73737" cx="64" cy="45" r="3"/>
	<polygon points="68,39 68,35 74,35 74,33 79,37 74,41 74,39 	"/>
</g>
</svg>
