<?xml version="1.0" encoding="utf-8"?>
<!-- Generator: Adobe Illustrator 19.1.0, SVG Export Plug-In . SVG Version: 6.00 Build 0)  -->
<!DOCTYPE svg PUBLIC "-//W3C//DTD SVG 1.1//EN" "http://www.w3.org/Graphics/SVG/1.1/DTD/svg11.dtd">
<svg version="1.1" id="Layer_1" xmlns="http://www.w3.org/2000/svg" xmlns:xlink="http://www.w3.org/1999/xlink" x="0px" y="0px"
	 viewBox="0 0 106 74" enable-background="new 0 0 106 74" xml:space="preserve">
<g>
	<g>
		<polygon points="26,46 23,46 23,43 25,43 25,44 26,44 		"/>
		<path d="M58,46h-4v-2h4V46z M50,46h-4v-2h4V46z M42,46h-4v-2h4V46z M34,46h-4v-2h4V46z"/>
		<polygon points="65,46 62,46 62,44 63,44 63,43 65,43 		"/>
		<path d="M65,40h-2v-4h2V40z M65,33h-2v-4h2V33z M65,26h-2v-4h2V26z"/>
		<polygon points="65,19 63,19 63,18 62,18 62,16 65,16 		"/>
		<path d="M58,18h-4v-2h4V18z M50,18h-4v-2h4V18z M42,18h-4v-2h4V18z M34,18h-4v-2h4V18z"/>
		<polygon points="25,19 23,19 23,16 26,16 26,18 25,18 		"/>
		<path d="M25,39.6h-2v-3.4h2V39.6z M25,32.7h-2v-3.4h2V32.7z M25,26h-2v-4h2V26z"/>
	</g>
	<rect x="41" y="28" width="24" height="18"/>
	<circle fill="#F73737" cx="64" cy="45" r="3"/>
	<polygon points="55,27 51,27 51,23 49,23 53,18 57,23 55,23 	"/>
</g>
</svg>
