<?xml version="1.0" encoding="utf-8"?>
<!-- Generator: Adobe Illustrator 19.1.0, SVG Export Plug-In . SVG Version: 6.00 Build 0)  -->
<!DOCTYPE svg PUBLIC "-//W3C//DTD SVG 1.1//EN" "http://www.w3.org/Graphics/SVG/1.1/DTD/svg11.dtd">
<svg version="1.1" id="Layer_1" xmlns="http://www.w3.org/2000/svg" xmlns:xlink="http://www.w3.org/1999/xlink" x="0px" y="0px"
	 viewBox="0 0 106 74" enable-background="new 0 0 106 74" xml:space="preserve">
<g>
	<g>
		<polygon points="35,46 32,46 32,43 34,43 34,44 35,44 		"/>
		<path d="M67,46h-4v-2h4V46z M59,46h-4v-2h4V46z M51,46h-4v-2h4V46z M43,46h-4v-2h4V46z"/>
		<polygon points="74,46 71,46 71,44 72,44 72,43 74,43 		"/>
		<path d="M74,40h-2v-4h2V40z M74,33h-2v-4h2V33z M74,26h-2v-4h2V26z"/>
		<polygon points="74,19 72,19 72,18 71,18 71,16 74,16 		"/>
		<path d="M67,18h-4v-2h4V18z M59,18h-4v-2h4V18z M51,18h-4v-2h4V18z M43,18h-4v-2h4V18z"/>
		<polygon points="34,19 32,19 32,16 35,16 35,18 34,18 		"/>
		<path d="M34,39.6h-2v-3.4h2V39.6z M34,32.7h-2v-3.4h2V32.7z M34,26h-2v-4h2V26z"/>
	</g>
	<rect x="41" y="28" width="24" height="18"/>
	<circle fill="#F73737" cx="53" cy="45" r="3"/>
	<polygon points="51,27 55,27 55,23 57,23 53,18 49,23 51,23 	"/>
</g>
</svg>
