<?xml version="1.0" encoding="utf-8"?>
<!-- Generator: Adobe Illustrator 19.1.0, SVG Export Plug-In . SVG Version: 6.00 Build 0)  -->
<!DOCTYPE svg PUBLIC "-//W3C//DTD SVG 1.1//EN" "http://www.w3.org/Graphics/SVG/1.1/DTD/svg11.dtd">
<svg version="1.1" id="Layer_1" xmlns="http://www.w3.org/2000/svg" xmlns:xlink="http://www.w3.org/1999/xlink" x="0px" y="0px"
	 viewBox="0 0 106 74" enable-background="new 0 0 106 74" xml:space="preserve">
<g>
	<g>
		<polygon points="26,30 23,30 23,27 25,27 25,28 26,28 		"/>
		<path d="M58,30h-4v-2h4V30z M50,30h-4v-2h4V30z M42,30h-4v-2h4V30z M34,30h-4v-2h4V30z"/>
		<polygon points="65,30 62,30 62,28 63,28 63,27 65,27 		"/>
		<path d="M65,24h-2v-4h2V24z M65,17h-2v-4h2V17z M65,10h-2V6h2V10z"/>
		<polygon points="65,3 63,3 63,2 62,2 62,0 65,0 		"/>
		<path d="M58,2h-4V0h4V2z M50,2h-4V0h4V2z M42,2h-4V0h4V2z M34,2h-4V0h4V2z"/>
		<polygon points="25,3 23,3 23,0 26,0 26,2 25,2 		"/>
		<path d="M25,23.6h-2v-3.4h2V23.6z M25,16.7h-2v-3.4h2V16.7z M25,10h-2V6h2V10z"/>
	</g>
	<rect x="41" y="28" width="24" height="18"/>
	<circle fill="#F73737" cx="64" cy="29" r="3"/>
	<polygon points="51,26 55,26 55,20 57,20 53,15 49,20 51,20 	"/>
</g>
</svg>
