<?xml version="1.0" encoding="utf-8"?>
<!-- Generator: Adobe Illustrator 19.1.0, SVG Export Plug-In . SVG Version: 6.00 Build 0)  -->
<!DOCTYPE svg PUBLIC "-//W3C//DTD SVG 1.1//EN" "http://www.w3.org/Graphics/SVG/1.1/DTD/svg11.dtd">
<svg version="1.1" id="Layer_1" xmlns="http://www.w3.org/2000/svg" xmlns:xlink="http://www.w3.org/1999/xlink" x="0px" y="0px"
	 viewBox="0 0 106 74" enable-background="new 0 0 106 74" xml:space="preserve">
<g>
	<g>
		<polygon points="35,30 32,30 32,27 34,27 34,28 35,28 		"/>
		<path d="M67,30h-4v-2h4V30z M59,30h-4v-2h4V30z M51,30h-4v-2h4V30z M43,30h-4v-2h4V30z"/>
		<polygon points="74,30 71,30 71,28 72,28 72,27 74,27 		"/>
		<path d="M74,24h-2v-4h2V24z M74,17h-2v-4h2V17z M74,10h-2V6h2V10z"/>
		<polygon points="74,3 72,3 72,2 71,2 71,0 74,0 		"/>
		<path d="M67,2h-4V0h4V2z M59,2h-4V0h4V2z M51,2h-4V0h4V2z M43,2h-4V0h4V2z"/>
		<polygon points="34,3 32,3 32,0 35,0 35,2 34,2 		"/>
		<path d="M34,23.6h-2v-3.4h2V23.6z M34,16.7h-2v-3.4h2V16.7z M34,10h-2V6h2V10z"/>
	</g>
	<rect x="41" y="28" width="24" height="18"/>
	<circle fill="#F73737" cx="53" cy="29" r="3"/>
	<polygon points="51,26 55,26 55,20 57,20 53,15 49,20 51,20 	"/>
</g>
</svg>
