<?xml version="1.0" encoding="utf-8"?>
<!-- Generator: Adobe Illustrator 19.1.0, SVG Export Plug-In . SVG Version: 6.00 Build 0)  -->
<!DOCTYPE svg PUBLIC "-//W3C//DTD SVG 1.1//EN" "http://www.w3.org/Graphics/SVG/1.1/DTD/svg11.dtd">
<svg version="1.1" id="Layer_1" xmlns="http://www.w3.org/2000/svg" xmlns:xlink="http://www.w3.org/1999/xlink" x="0px" y="0px"
	 viewBox="0 0 106 74" enable-background="new 0 0 106 74" xml:space="preserve">
<g>
	<g>
		<polygon points="44,30 41,30 41,27 43,27 43,28 44,28 		"/>
		<path d="M76,30h-4v-2h4V30z M68,30h-4v-2h4V30z M60,30h-4v-2h4V30z M52,30h-4v-2h4V30z"/>
		<polygon points="83,30 80,30 80,28 81,28 81,27 83,27 		"/>
		<path d="M83,24h-2v-4h2V24z M83,17h-2v-4h2V17z M83,10h-2V6h2V10z"/>
		<polygon points="83,3 81,3 81,2 80,2 80,0 83,0 		"/>
		<path d="M76,2h-4V0h4V2z M68,2h-4V0h4V2z M60,2h-4V0h4V2z M52,2h-4V0h4V2z"/>
		<polygon points="43,3 41,3 41,0 44,0 44,2 43,2 		"/>
		<path d="M43,23.6h-2v-3.4h2V23.6z M43,16.7h-2v-3.4h2V16.7z M43,10h-2V6h2V10z"/>
	</g>
	<rect x="41" y="28" width="24" height="18"/>
	<circle fill="#F73737" cx="42" cy="29" r="3"/>
	<polygon points="51,26 55,26 55,20 57,20 53,15 49,20 51,20 	"/>
</g>
</svg>
