<svg xmlns="http://www.w3.org/2000/svg" width="190" height="38" viewBox="-364 262 190 38" enable-background="new -364 262 190 38"><g fill="#fff"><path d="M-311.6 263c-.4-.6-1.1-.9-2.1-.9-.7 0-1.8-.1-3.3 0h-5.8l-.4 1.5 3.9.3c1.5.1 2.3.7 2.3 1.8 0 .3 0 .6-.1 1l-4.5 22.9c-.3 1.5-.7 2.5-1.3 2.9-.6.4-1.5.7-2.7.8l-2.8.2-.5 1.6h7.8c2.1 0 3.1-.1 3.9-1 .8-.9 1.1-2.4 1.4-4.2l4.5-23c.2-.8.2-1.5.2-2 .2-.8 0-1.4-.5-1.9zM-363.4 294.1c.4.6 1.1.9 2.1.9.7 0 1.8.1 3.3 0h5.8l.4-1.5-3.9-.3c-1.5-.1-2.3-.7-2.3-1.8 0-.3 0-.6.1-1l4.5-22.9c.3-1.5.7-2.5 1.3-2.9.6-.4 1.5-.7 2.7-.8l2.8-.2.5-1.6h-7.8c-2.1 0-3.1.1-3.9 1-.8.9-1.1 2.4-1.4 4.2l-4.5 23c-.2.8-.2 1.5-.2 2-.1.7.1 1.3.5 1.9zM-329.2 278l-10.5-7.6c-.3-.2-1 0-1.2.6l-2.9 15.2c-.1.5.2.7.6.7.1 0 .3 0 .4-.1l13.4-7.6c.2-.1.4-.4.4-.6.1-.3 0-.5-.2-.6"/></g><polygon fill="#fff" points="-243.1,276.3 -237.5,269.3 -231.2,269.3 -239.8,279.6 -230.8,290.3 -237.2,290.3 -243.3,282.8 -249.3,290.3 -255.6,290.3 -246.6,279.6 -255.3,269.3 -248.8,269.3"/><path fill="#fff" d="M-204.7 279.8c0-5.8 4.3-10.9 11.2-10.9 7 0 11.2 5.1 11.2 10.9 0 5.8-4.3 10.9-11.2 10.9-7 .1-11.2-5-11.2-10.9m17 0c0-3.8-2.4-6.5-5.8-6.5s-5.8 2.7-5.8 6.5c0 3.9 2.4 6.5 5.8 6.5s5.8-2.6 5.8-6.5"/><path fill="#fff" d="M-217.1 268.9c-2.7 0-4 .4-6.1 1.8v-1.5h-5.3v30.8h5.3v-10.9c1.6 1.2 3.5 1.7 5.7 1.7 5.6 0 10.2-4.9 10.2-11 .1-6.4-4.3-10.9-9.8-10.9zm-1.1 17.3c-1.9 0-4.1-1.1-4.9-2v-8.4c1.5-1.5 2.9-2.4 4.9-2.4 3 0 5.7 2.3 5.7 6.4-.1 4.2-3 6.4-5.7 6.4z"/><rect x="-263.9" y="269.3" fill="#fff" width="5.3" height="21"/><path fill="#fff" d="M-301.7 269.8h5.5v1.8c1-1.1 3.1-2.6 6-2.6 2.7 0 4.4.6 6.5 3.2h.1c.1-.1.2-.2.2-.3 1.6-1.8 4.3-2.9 7.2-2.9 5 0 8.3 2.8 8.3 7.3v14.1h-5.5v-12.4c0-2.4-1.2-4.3-3.7-4.3-3.1 0-4.9 2.8-4.9 5.7v11h-5.5v-12.4c0-2.4-1.2-4.3-3.8-4.3-3 0-4.8 2.8-4.8 5.7v11h-5.5c-.1-.1-.1-20.6-.1-20.6z"/><path fill="#fff" d="M-179.8 269.9h-1v-.6h2.7v.6h-1v2.8h-.6l-.1-2.8zm2.4-.5h.7l1 1.6 1-1.6h.7v3.3h-.6v-2.4l-1 1.6h-.1l-1-1.6v2.4h-.6v-3.3z"/></svg>