<?xml version="1.0" encoding="utf-8"?>
<!-- Generator: Adobe Illustrator 18.1.1, SVG Export Plug-In . SVG Version: 6.00 Build 0)  -->
<!DOCTYPE svg PUBLIC "-//W3C//DTD SVG 1.1//EN" "http://www.w3.org/Graphics/SVG/1.1/DTD/svg11.dtd">
<svg version="1.1" id="Layer_1" xmlns="http://www.w3.org/2000/svg" xmlns:xlink="http://www.w3.org/1999/xlink" x="0px" y="0px"
	 viewBox="0 0 1024 1024" enable-background="new 0 0 1024 1024" xml:space="preserve">
<g>
	<path id="file_background" d="M172.8,952.7V71.3h527.1l176.3,176.3v705.2H172.8 M231.5,894h585.8V306.3H641.1V130H231.5V894"/>
	<text transform="matrix(1 0 0 1 313.6729 875.5579)" font-family="'MyriadPro-Semibold'" font-size="145">IMAGE</text>
	<g>
		<path d="M282,344.9V739h485V344.9H282z M736.7,708.7H312.3V375.2h424.4L736.7,708.7L736.7,708.7z M615.4,451
			c0,25.1,20.4,45.5,45.5,45.5s45.5-20.4,45.5-45.5s-20.4-45.5-45.5-45.5C635.8,405.6,615.4,425.9,615.4,451z M706.4,678.4H342.6
			l90.9-242.5l121.3,151.6l60.6-45.5L706.4,678.4z"/>
	</g>
</g>
</svg>
