<?xml version="1.0" encoding="utf-8"?>
<!-- Generator: Adobe Illustrator 18.1.1, SVG Export Plug-In . SVG Version: 6.00 Build 0)  -->
<!DOCTYPE svg PUBLIC "-//W3C//DTD SVG 1.1//EN" "http://www.w3.org/Graphics/SVG/1.1/DTD/svg11.dtd">
<svg version="1.1" id="Layer_1" xmlns="http://www.w3.org/2000/svg" xmlns:xlink="http://www.w3.org/1999/xlink" x="0px" y="0px"
	 viewBox="0 0 1024 1024" enable-background="new 0 0 1024 1024" xml:space="preserve">
<g>
	<path id="file_background" d="M172.8,952.7V71.3h527.1l176.3,176.3v705.2H172.8 M231.5,894h585.8V306.3H641.1V130H231.5V894"/>
	<text transform="matrix(1 0 0 1 395.6194 875.5579)" font-family="'MyriadPro-Semibold'" font-size="145">SWF</text>
	<g>
		<g opacity="0.15">
			<path d="M369.1,660.8c0,0,24.3,0,38.3-3.3c14-3.2,36-24.3,50.9-50.2c34.6-60.1,55-178.5,105.7-225.6
				c50.6-47.1,120.9-51.7,132.7-48.4v82.4c-83.4,1.1-98.9,85.5-98.9,85.5h55.4v81.9h-87.7c0,0-7.3,31.7-50.2,88.8
				C454,753.3,369,748.3,369,748.3v-87.5H369.1z"/>
			<path d="M529.4,708.2h-3.9V705h11v3.3h-3.9v13.9h-3.2L529.4,708.2L529.4,708.2z"/>
			<path d="M550.4,715.5c-0.1-2.1-0.1-4.5-0.1-7l0,0c-0.5,2.2-1.1,4.6-1.6,6.6l-1.7,6.7h-2.5l-1.5-6.6c-0.5-2-0.9-4.5-1.3-6.7l0,0
				c-0.1,2.3-0.2,4.9-0.2,7.1l-0.3,6.5h-3l0.9-17.2h4.3l1.4,5.7c0.5,2,0.9,4.1,1.2,6.1h0.1c0.4-2,0.9-4.2,1.4-6.2l1.5-5.7h4.3
				l0.8,17.2h-3.2L550.4,715.5z"/>
		</g>
		<g>
			<g>
				<g>
					<path d="M369.4,661.3c0,0,24.3,0,38.3-3.3c14-3.2,36-24.3,50.9-50.2c34.6-60.1,55-178.5,105.7-225.6
						c50.6-47.1,120.9-51.7,132.7-48.4v82.4c-83.4,1.1-98.9,85.5-98.9,85.5h55.4v81.9h-87.7c0,0-7.3,31.7-50.2,88.8
						c-61.3,81.4-146.3,76.4-146.3,76.4v-87.5H369.4z"/>
				</g>
				<g>
					<path d="M529.7,708.7h-3.9v-3.3h11v3.3H533v13.9h-3.2L529.7,708.7L529.7,708.7z"/>
					<path d="M550.7,716c-0.1-2.1-0.1-4.5-0.1-7l0,0c-0.5,2.2-1.1,4.6-1.6,6.6l-1.7,6.7h-2.5l-1.5-6.6c-0.5-2-0.9-4.5-1.3-6.7l0,0
						c-0.1,2.3-0.2,4.9-0.2,7.1l-0.3,6.5h-3l0.9-17.2h4.3l1.4,5.7c0.5,2,0.9,4.1,1.2,6.1h0.1c0.4-2,0.9-4.2,1.4-6.2l1.5-5.7h4.3
						l0.8,17.2h-3.2L550.7,716z"/>
				</g>
			</g>
		</g>
	</g>
</g>
</svg>
