<?xml version="1.0" encoding="utf-8"?>
<!-- Generator: Adobe Illustrator 18.1.1, SVG Export Plug-In . SVG Version: 6.00 Build 0)  -->
<svg version="1.1" id="Layer_1" xmlns="http://www.w3.org/2000/svg" xmlns:xlink="http://www.w3.org/1999/xlink" x="0px" y="0px"
	 width="190px" height="38px" viewBox="-364 262 190 38" enable-background="new -364 262 190 38" xml:space="preserve">
<g>
	<g>
		<path fill="#FFFFFF" d="M-311.6,263c-0.4-0.6-1.1-0.9-2.1-0.9c-0.7,0-1.8-0.1-3.3,0l-5.8,0l-0.4,1.5l3.9,0.3
			c1.5,0.1,2.3,0.7,2.3,1.8c0,0.3,0,0.6-0.1,1l-4.5,22.9c-0.3,1.5-0.7,2.5-1.3,2.9c-0.6,0.4-1.5,0.7-2.7,0.8l-2.8,0.2l-0.5,1.6
			l7.8,0c2.1,0,3.1-0.1,3.9-1c0.8-0.9,1.1-2.4,1.4-4.2l4.5-23c0.2-0.8,0.2-1.5,0.2-2C-310.9,264.1-311.1,263.5-311.6,263z"/>
		<path fill="#FFFFFF" d="M-363.4,294.1c0.4,0.6,1.1,0.9,2.1,0.9c0.7,0,1.8,0.1,3.3,0l5.8,0l0.4-1.5l-3.9-0.3
			c-1.5-0.1-2.3-0.7-2.3-1.8c0-0.3,0-0.6,0.1-1l4.5-22.9c0.3-1.5,0.7-2.5,1.3-2.9c0.6-0.4,1.5-0.7,2.7-0.8l2.8-0.2l0.5-1.6l-7.8,0
			c-2.1,0-3.1,0.1-3.9,1c-0.8,0.9-1.1,2.4-1.4,4.2l-4.5,23c-0.2,0.8-0.2,1.5-0.2,2C-364,292.9-363.8,293.5-363.4,294.1z"/>
		<path fill="#FFFFFF" d="M-329.2,278l-10.5-7.6c-0.3-0.2-1,0-1.2,0.6l-2.9,15.2c-0.1,0.5,0.2,0.7,0.6,0.7c0.1,0,0.3,0,0.4-0.1
			l13.4-7.6c0.2-0.1,0.4-0.4,0.4-0.6C-328.9,278.3-329,278.1-329.2,278"/>
	</g>
	<g>
		<polygon fill="#FFFFFF" points="-243.1,276.3 -237.5,269.3 -231.2,269.3 -239.8,279.6 -230.8,290.3 -237.2,290.3 -243.3,282.8 
			-249.3,290.3 -255.6,290.3 -246.6,279.6 -255.3,269.3 -248.8,269.3 		"/>
		<path fill="#FFFFFF" d="M-204.7,279.8c0-5.8,4.3-10.9,11.2-10.9c7,0,11.2,5.1,11.2,10.9c0,5.8-4.3,10.9-11.2,10.9
			C-200.5,290.8-204.7,285.7-204.7,279.8 M-187.7,279.8c0-3.8-2.4-6.5-5.8-6.5s-5.8,2.7-5.8,6.5c0,3.9,2.4,6.5,5.8,6.5
			S-187.7,283.7-187.7,279.8"/>
		<path fill="#FFFFFF" d="M-217.1,268.9c-2.7,0-4,0.4-6.1,1.8v-1.5h-5.3V300h5.3v-10.9c1.6,1.2,3.5,1.7,5.7,1.7
			c5.6,0,10.2-4.9,10.2-11C-207.2,273.4-211.6,268.9-217.1,268.9z M-218.2,286.2c-1.9,0-4.1-1.1-4.9-2v-8.4c1.5-1.5,2.9-2.4,4.9-2.4
			c3,0,5.7,2.3,5.7,6.4C-212.6,284-215.5,286.2-218.2,286.2z"/>
		<rect x="-263.9" y="269.3" fill="#FFFFFF" width="5.3" height="21"/>
		<g>
			<path fill="#FFFFFF" d="M-301.7,269.8h5.5v1.8c1-1.1,3.1-2.6,6-2.6c2.7,0,4.4,0.6,6.5,3.2c0,0,0,0,0.1,0c0.1-0.1,0.2-0.2,0.2-0.3
				c1.6-1.8,4.3-2.9,7.2-2.9c5,0,8.3,2.8,8.3,7.3v14.1h-5.5V278c0-2.4-1.2-4.3-3.7-4.3c-3.1,0-4.9,2.8-4.9,5.7v11h-5.5V278
				c0-2.4-1.2-4.3-3.8-4.3c-3,0-4.8,2.8-4.8,5.7v11h-5.5C-301.7,290.3-301.7,269.8-301.7,269.8z"/>
		</g>
	</g>
	<g>
		<path fill="#FFFFFF" d="M-179.8,269.9h-1v-0.6h2.7v0.6h-1v2.8h-0.6L-179.8,269.9L-179.8,269.9z M-177.4,269.4h0.7l1,1.6l1-1.6h0.7
			v3.3h-0.6v-2.4l-1,1.6h-0.1l-1-1.6v2.4h-0.6V269.4z"/>
	</g>
</g>
</svg>
