<?xml version="1.0" encoding="utf-8"?>
<!-- Generator: Adobe Illustrator 15.1.0, SVG Export Plug-In . SVG Version: 6.00 Build 0)  -->
<!DOCTYPE svg PUBLIC "-//W3C//DTD SVG 1.1//EN" "http://www.w3.org/Graphics/SVG/1.1/DTD/svg11.dtd">
<svg version="1.1" id="Layer_1" xmlns="http://www.w3.org/2000/svg" xmlns:xlink="http://www.w3.org/1999/xlink" x="0px" y="0px"
	 width="210px" height="41.976px" viewBox="0 0 210 41.976" enable-background="new 0 0 210 41.976" xml:space="preserve">
<g>
	<g>
		<path fill="#FFFFFF" d="M57.948,1.062c-0.476-0.608-1.245-0.945-2.308-1.008c-0.773-0.048-1.98-0.062-3.623-0.048l-6.379,0.004
			L45.18,1.675l4.323,0.354c1.709,0.101,2.562,0.757,2.562,1.965c0,0.29-0.047,0.673-0.146,1.15l-4.939,25.267
			c-0.305,1.648-0.772,2.717-1.399,3.202c-0.63,0.488-1.612,0.789-2.95,0.904l-3.116,0.231l-0.506,1.764l8.577,0.004
			c2.321-0.014,3.471-0.065,4.313-1.079c0.867-1.041,1.187-2.637,1.572-4.653l4.926-25.421c0.175-0.859,0.266-1.611,0.266-2.256
			C58.661,2.352,58.422,1.67,57.948,1.062z"/>
		<path fill="#FFFFFF" d="M0.713,35.457c0.475,0.608,1.243,0.945,2.307,1.008c0.772,0.047,1.981,0.062,3.625,0.048l6.377-0.005
			l0.459-1.664l-4.324-0.355c-1.708-0.103-2.562-0.757-2.562-1.966c0-0.289,0.049-0.673,0.145-1.151L11.68,6.107
			c0.305-1.648,0.771-2.717,1.401-3.202c0.626-0.487,1.61-0.788,2.949-0.906l3.115-0.23l0.507-1.764L11.076,0
			c-2.32,0.014-3.47,0.067-4.313,1.081C5.896,2.12,5.575,3.717,5.189,5.734l-4.924,25.42C0.089,32.013,0,32.765,0,33.409
			C0,34.167,0.236,34.848,0.713,35.457z"/>
		<path fill="#FFFFFF" d="M38.506,17.617L26.898,9.242c-0.38-0.253-1.15-0.024-1.284,0.672l-3.25,16.818
			c-0.098,0.505,0.243,0.778,0.613,0.778c0.138,0,0.278-0.036,0.421-0.109l14.837-8.373c0.241-0.142,0.417-0.401,0.479-0.694
			C38.774,18.034,38.699,17.77,38.506,17.617"/>
	</g>
	<g>
		<polygon fill="#FFFFFF" points="133.582,15.832 139.871,8.04 146.828,8.04 137.238,19.397 147.242,31.284 140.129,31.284 
			133.428,23.007 126.775,31.284 119.82,31.284 129.771,19.441 120.182,8.04 127.291,8.04 		"/>
		<path fill="#FFFFFF" d="M176.074,19.7c0-6.38,4.785-12.069,12.389-12.069c7.711,0,12.389,5.584,12.389,12.069
			c0,6.383-4.783,12.072-12.389,12.072C180.752,31.772,176.074,26.188,176.074,19.7 M194.896,19.7c0-4.254-2.656-7.231-6.434-7.231
			s-6.434,2.977-6.434,7.231c0,4.256,2.656,7.234,6.434,7.234S194.896,23.956,194.896,19.7"/>
		<path fill="#FFFFFF" d="M162.369,7.629c-2.971,0-4.449,0.41-6.713,2.043V8.04h-5.805v33.937h5.818V29.931
			c1.756,1.329,3.828,1.84,6.328,1.84c6.17,0,11.312-5.424,11.312-12.177C173.311,12.574,168.432,7.629,162.369,7.629z
			 M161.094,26.772c-2.127,0-4.572-1.198-5.424-2.202v-9.298c1.615-1.607,3.242-2.646,5.424-2.646c3.297,0,6.26,2.555,6.26,7.021
			C167.354,24.272,164.178,26.772,161.094,26.772z"/>
		<rect x="110.682" y="8.04" fill="#FFFFFF" width="5.855" height="23.244"/>
		<g>
			<path fill="#FFFFFF" d="M68.828,8.617h6.075v1.967c1.101-1.225,3.422-2.911,6.661-2.911c2.963,0,4.917,0.708,7.229,3.552
				c0.045,0.053,0.055,0.021,0.086-0.017c0.07-0.083,0.198-0.213,0.255-0.278c1.815-2.015,4.718-3.256,7.923-3.256
				c5.479,0,9.12,3.111,9.12,8.068v15.57h-6.076V17.663c0-2.637-1.294-4.807-4.132-4.807c-3.386,0-5.43,3.045-5.43,6.318v12.137
				h-6.074V17.663c0-2.637-1.296-4.807-4.232-4.807c-3.289,0-5.33,3.045-5.33,6.318v12.137h-6.075V8.617z"/>
		</g>
	</g>
	<g>
		<path fill="#FFFFFF" d="M203.631,8.761h-1.141V8.112h2.992v0.649h-1.143v3.051h-0.709V8.761z M206.275,8.112h0.758l1.117,1.754
			l1.115-1.754H210v3.7h-0.686V9.182l-1.141,1.766H208.1l-1.141-1.766v2.631h-0.684V8.112z"/>
	</g>
</g>
</svg>
