<svg xmlns="http://www.w3.org/2000/svg" xmlns:xlink="http://www.w3.org/1999/xlink" preserveAspectRatio="xMidYMid" width="12" height="12" viewBox="0 0 12 12">
  <defs>
    <style>

      .cls-2 {
        fill: #010101;
      }
    </style>
  </defs>
  <path d="M12.000,7.000 C12.000,7.000 7.000,7.000 7.000,7.000 C7.000,7.000 7.000,12.000 7.000,12.000 C7.000,12.000 5.000,12.000 5.000,12.000 C5.000,12.000 5.000,7.000 5.000,7.000 C5.000,7.000 -0.000,7.000 -0.000,7.000 C-0.000,7.000 -0.000,5.000 -0.000,5.000 C-0.000,5.000 5.000,5.000 5.000,5.000 C5.000,5.000 5.000,0.000 5.000,0.000 C5.000,0.000 7.000,0.000 7.000,0.000 C7.000,0.000 7.000,5.000 7.000,5.000 C7.000,5.000 12.000,5.000 12.000,5.000 C12.000,5.000 12.000,7.000 12.000,7.000 Z" id="path-1" class="cls-2" fill-rule="evenodd"/>
</svg>
