<svg xmlns="http://www.w3.org/2000/svg" xmlns:xlink="http://www.w3.org/1999/xlink" preserveAspectRatio="xMidYMid" width="16" height="16" viewBox="0 0 16 16">
  <defs>
    <style>

      .cls-2 {
        fill: #99d2f3;
      }
    </style>
  </defs>
  <path d="M8.000,16.000 C3.582,16.000 0.000,12.418 0.000,8.000 C0.000,3.582 3.582,-0.000 8.000,-0.000 C12.418,-0.000 16.000,3.582 16.000,8.000 C16.000,12.418 12.418,16.000 8.000,16.000 ZM8.000,1.000 C4.140,1.000 1.000,4.140 1.000,8.000 C1.000,11.860 4.140,15.000 8.000,15.000 C11.860,15.000 15.000,11.860 15.000,8.000 C15.000,4.140 11.860,1.000 8.000,1.000 ZM8.000,12.988 C5.245,12.988 3.012,10.755 3.012,8.000 C3.012,5.245 5.245,3.012 8.000,3.012 C10.755,3.012 12.988,5.245 12.988,8.000 C12.988,10.755 10.755,12.988 8.000,12.988 ZM8.000,4.012 C5.801,4.012 4.012,5.801 4.012,8.000 C4.012,10.199 5.801,11.988 8.000,11.988 C10.199,11.988 11.988,10.199 11.988,8.000 C11.988,5.801 10.199,4.012 8.000,4.012 ZM8.000,9.994 C6.899,9.994 6.006,9.101 6.006,8.000 C6.006,6.899 6.899,6.006 8.000,6.006 C9.101,6.006 9.994,6.899 9.994,8.000 C9.994,9.101 9.101,9.994 8.000,9.994 Z" id="path-1" class="cls-2" fill-rule="evenodd"/>
</svg>
