<svg xmlns="http://www.w3.org/2000/svg" xmlns:xlink="http://www.w3.org/1999/xlink" preserveAspectRatio="xMidYMid" width="13" height="16" viewBox="0 0 13 16">
  <defs>
    <style>

      .cls-2 {
        fill: #010101;
      }
    </style>
  </defs>
  <path d="M9.207,16.001 C9.207,16.001 -0.000,16.001 -0.000,16.001 C-0.000,16.001 -0.000,7.000 -0.000,7.000 C-0.000,7.000 -0.000,6.000 -0.000,6.000 C-0.000,6.000 -0.000,2.000 -0.000,2.000 C-0.000,2.000 3.000,2.000 3.000,2.000 C3.000,2.000 3.000,-0.000 3.000,-0.000 C3.000,-0.000 5.000,-0.000 5.000,-0.000 C5.000,-0.000 5.000,2.000 5.000,2.000 C5.000,2.000 8.000,2.000 8.000,2.000 C8.000,2.000 8.000,-0.000 8.000,-0.000 C8.000,-0.000 10.000,-0.000 10.000,-0.000 C10.000,-0.000 10.000,2.000 10.000,2.000 C10.000,2.000 13.000,2.000 13.000,2.000 C13.000,2.000 13.000,6.000 13.000,6.000 C13.000,6.000 13.000,7.000 13.000,7.000 C13.000,7.000 13.000,12.207 13.000,12.207 C13.000,12.207 9.207,16.001 9.207,16.001 ZM12.000,3.000 C12.000,3.000 10.000,3.000 10.000,3.000 C10.000,3.000 10.000,5.001 10.000,5.001 C10.000,5.001 8.000,5.001 8.000,5.001 C8.000,5.001 8.000,3.000 8.000,3.000 C8.000,3.000 5.000,3.000 5.000,3.000 C5.000,3.000 5.000,5.001 5.000,5.001 C5.000,5.001 3.000,5.001 3.000,5.001 C3.000,5.001 3.000,3.000 3.000,3.000 C3.000,3.000 1.000,3.000 1.000,3.000 C1.000,3.000 1.000,6.000 1.000,6.000 C1.000,6.000 12.000,6.000 12.000,6.000 C12.000,6.000 12.000,3.000 12.000,3.000 ZM12.000,7.000 C12.000,7.000 1.000,7.000 1.000,7.000 C1.000,7.000 1.000,15.001 1.000,15.001 C1.000,15.001 8.793,15.001 8.793,15.001 C8.793,15.001 9.000,14.793 9.000,14.793 C9.000,14.793 9.000,12.001 9.000,12.001 C9.000,12.001 11.793,12.001 11.793,12.001 C11.793,12.001 12.000,11.794 12.000,11.794 C12.000,11.794 12.000,7.000 12.000,7.000 ZM6.000,14.000 C6.000,14.000 5.000,14.000 5.000,14.000 C5.000,14.000 5.000,13.000 5.000,13.000 C5.000,13.000 6.000,13.000 6.000,13.000 C6.000,13.000 6.000,10.000 6.000,10.000 C6.000,10.000 5.000,10.000 5.000,10.000 C5.000,10.000 5.000,9.000 5.000,9.000 C5.000,9.000 6.000,9.000 6.000,9.000 C6.000,9.000 6.000,8.000 6.000,8.000 C6.000,8.000 7.000,8.000 7.000,8.000 C7.000,8.000 7.000,13.000 7.000,13.000 C7.000,13.000 8.000,13.000 8.000,13.000 C8.000,13.000 8.000,14.000 8.000,14.000 C8.000,14.000 7.000,14.000 7.000,14.000 C7.000,14.000 6.000,14.000 6.000,14.000 Z" id="path-1" class="cls-2" fill-rule="evenodd"/>
</svg>
