<svg xmlns="http://www.w3.org/2000/svg" xmlns:xlink="http://www.w3.org/1999/xlink" preserveAspectRatio="xMidYMid" width="16" height="16" viewBox="0 0 16 16">
  <defs>
    <style>

      .cls-2 {
        fill: #010101;
      }
    </style>
  </defs>
  <path d="M8.000,16.001 C3.582,16.001 -0.000,12.418 -0.000,8.001 C-0.000,3.582 3.582,-0.000 8.000,-0.000 C12.418,-0.000 16.000,3.582 16.000,8.001 C16.000,12.418 12.418,16.001 8.000,16.001 ZM8.000,1.001 C4.140,1.001 1.000,4.140 1.000,8.001 C1.000,11.860 4.140,15.001 8.000,15.001 C11.860,15.001 15.000,11.860 15.000,8.001 C15.000,4.140 11.860,1.001 8.000,1.001 ZM11.389,10.476 C11.389,10.476 9.975,11.890 9.975,11.890 C9.975,11.890 7.773,9.688 7.773,9.688 C7.773,9.688 5.445,12.016 5.445,12.016 C5.445,12.016 3.986,10.555 3.986,10.555 C3.986,10.555 6.313,8.228 6.313,8.228 C6.313,8.228 3.611,5.525 3.611,5.525 C3.611,5.525 5.025,4.111 5.025,4.111 C5.025,4.111 7.727,6.814 7.727,6.814 C7.727,6.814 10.555,3.986 10.555,3.986 C10.555,3.986 12.015,5.445 12.015,5.445 C12.015,5.445 9.187,8.274 9.187,8.274 C9.187,8.274 11.389,10.476 11.389,10.476 Z" id="path-1" class="cls-2" fill-rule="evenodd"/>
</svg>
