<?xml version="1.0" encoding="utf-8"?>
<!-- Generator: Adobe Illustrator 15.1.0, SVG Export Plug-In . SVG Version: 6.00 Build 0)  -->
<!DOCTYPE svg PUBLIC "-//W3C//DTD SVG 1.1//EN" "http://www.w3.org/Graphics/SVG/1.1/DTD/svg11.dtd">
<svg version="1.1" id="Layer_2" xmlns="http://www.w3.org/2000/svg" xmlns:xlink="http://www.w3.org/1999/xlink" x="0px" y="0px"
	 width="16px" height="16px" viewBox="0 0 16 16" enable-background="new 0 0 16 16" xml:space="preserve">
<g>
	<path fill="#000" d="M11.969,0H3v2.958h0.969V1H11v0.001V4h3v9l-1.989,0.006l0.054,0.996h2.904V2.999L11.969,0z"/>
	<path fill="#000" d="M3,10.989h7.969v0.969H3V10.989z"/>
	<path fill="#000" d="M3,7.989h7.969v0.967H3V7.989z"/>
	<path fill="#000" d="M3,4.989h4.969v0.969H3V4.989z"/>
	<path fill="#000" d="M9.969,2H1v13.958h0.969V3H9v0v2.999h3v9.002L1.011,15.005l0.054,0.996h11.904V5L9.969,2z"/>
</g>
</svg>
