<svg xmlns="http://www.w3.org/2000/svg" xmlns:xlink="http://www.w3.org/1999/xlink" preserveAspectRatio="xMidYMid" width="16" height="16" viewBox="0 0 16 16">
  <defs>
    <style>

      .cls-2 {
        fill: #0378bd;
      }
    </style>
  </defs>
  <path d="M6.992,9.988 C6.992,9.988 6.992,8.988 6.992,8.988 C6.992,8.988 14.989,8.988 14.989,8.988 C14.989,8.988 14.989,0.988 14.989,0.988 C14.989,0.988 0.994,0.988 0.994,0.988 C0.994,0.988 0.994,8.988 0.994,8.988 C0.994,8.988 0.994,8.988 0.994,8.988 C0.994,8.988 1.994,8.988 1.994,8.988 C1.994,8.988 1.994,9.988 1.994,9.988 C1.994,9.988 -0.006,9.988 -0.006,9.988 C-0.006,9.988 -0.006,-0.012 -0.006,-0.012 C-0.006,-0.012 15.989,-0.012 15.989,-0.012 C15.989,-0.012 15.989,9.988 15.989,9.988 C15.989,9.988 6.992,9.988 6.992,9.988 ZM2.549,5.026 C2.549,5.026 6.458,2.490 6.458,2.490 C6.458,2.490 9.054,5.508 9.054,5.508 C9.054,5.508 13.203,2.731 13.203,2.731 C13.203,2.731 13.758,3.562 13.758,3.562 C13.758,3.562 8.873,6.832 8.873,6.832 C8.873,6.832 6.269,3.804 6.269,3.804 C6.269,3.804 3.093,5.865 3.093,5.865 C3.093,5.865 2.549,5.026 2.549,5.026 ZM2.993,7.206 C2.993,7.206 5.992,7.206 5.992,7.206 C5.992,7.206 5.992,12.206 5.992,12.206 C5.992,12.206 8.076,12.206 8.076,12.206 C8.076,12.206 4.577,15.794 4.577,15.794 C4.577,15.794 1.078,12.206 1.078,12.206 C1.078,12.206 2.993,12.206 2.993,12.206 C2.993,12.206 2.993,7.206 2.993,7.206 Z" id="path-1" class="cls-2" fill-rule="evenodd"/>
</svg>
