<svg xmlns="http://www.w3.org/2000/svg" xmlns:xlink="http://www.w3.org/1999/xlink" preserveAspectRatio="xMidYMid" width="14" height="15" viewBox="0 0 14 15">
  <defs>
    <style>

      .cls-2 {
        fill: #99d2f3;
      }
    </style>
  </defs>
  <path d="M12.000,1.000 C12.000,1.000 8.200,6.067 8.200,6.067 C8.200,6.067 8.000,6.334 8.000,6.334 C8.000,6.334 8.000,6.667 8.000,6.667 C8.000,6.667 8.000,12.428 8.000,12.428 C8.000,12.428 6.000,11.262 6.000,11.262 C6.000,11.262 6.000,6.667 6.000,6.667 C6.000,6.667 6.000,6.333 6.000,6.333 C6.000,6.333 5.800,6.067 5.800,6.067 C5.800,6.067 2.000,1.000 2.000,1.000 C2.000,1.000 12.000,1.000 12.000,1.000 M14.000,0.000 C14.000,0.000 0.000,0.000 0.000,0.000 C0.000,0.000 5.000,6.667 5.000,6.667 C5.000,6.667 5.000,11.836 5.000,11.836 C5.000,11.836 9.000,14.169 9.000,14.169 C9.000,14.169 9.000,6.667 9.000,6.667 C9.000,6.667 14.000,0.000 14.000,0.000 C14.000,0.000 14.000,0.000 14.000,0.000 Z" id="path-1" class="cls-2" fill-rule="evenodd"/>
</svg>
