<svg xmlns="http://www.w3.org/2000/svg" xmlns:xlink="http://www.w3.org/1999/xlink" preserveAspectRatio="xMidYMid" width="14" height="14" viewBox="0 0 14 14">
  <defs>
    <style>

      .cls-2 {
        fill: #010101;
      }
    </style>
  </defs>
  <path d="M10.000,14.000 C10.000,14.000 10.000,10.000 10.000,10.000 C10.000,10.000 14.000,10.000 14.000,10.000 C14.000,10.000 14.000,14.000 14.000,14.000 C14.000,14.000 10.000,14.000 10.000,14.000 ZM10.000,5.000 C10.000,5.000 14.000,5.000 14.000,5.000 C14.000,5.000 14.000,9.000 14.000,9.000 C14.000,9.000 10.000,9.000 10.000,9.000 C10.000,9.000 10.000,5.000 10.000,5.000 ZM10.000,0.000 C10.000,0.000 14.000,0.000 14.000,0.000 C14.000,0.000 14.000,4.000 14.000,4.000 C14.000,4.000 10.000,4.000 10.000,4.000 C10.000,4.000 10.000,0.000 10.000,0.000 ZM5.000,10.000 C5.000,10.000 9.000,10.000 9.000,10.000 C9.000,10.000 9.000,14.000 9.000,14.000 C9.000,14.000 5.000,14.000 5.000,14.000 C5.000,14.000 5.000,10.000 5.000,10.000 ZM5.000,5.000 C5.000,5.000 9.000,5.000 9.000,5.000 C9.000,5.000 9.000,9.000 9.000,9.000 C9.000,9.000 5.000,9.000 5.000,9.000 C5.000,9.000 5.000,5.000 5.000,5.000 ZM5.000,0.000 C5.000,0.000 9.000,0.000 9.000,0.000 C9.000,0.000 9.000,4.000 9.000,4.000 C9.000,4.000 5.000,4.000 5.000,4.000 C5.000,4.000 5.000,0.000 5.000,0.000 ZM0.000,10.000 C0.000,10.000 4.000,10.000 4.000,10.000 C4.000,10.000 4.000,14.000 4.000,14.000 C4.000,14.000 0.000,14.000 0.000,14.000 C0.000,14.000 0.000,10.000 0.000,10.000 ZM0.000,5.000 C0.000,5.000 4.000,5.000 4.000,5.000 C4.000,5.000 4.000,9.000 4.000,9.000 C4.000,9.000 0.000,9.000 0.000,9.000 C0.000,9.000 0.000,5.000 0.000,5.000 ZM0.000,0.000 C0.000,0.000 4.000,0.000 4.000,0.000 C4.000,0.000 4.000,4.000 4.000,4.000 C4.000,4.000 0.000,4.000 0.000,4.000 C0.000,4.000 0.000,0.000 0.000,0.000 Z" id="path-1" class="cls-2" fill-rule="evenodd"/>
</svg>
