<svg xmlns="http://www.w3.org/2000/svg" xmlns:xlink="http://www.w3.org/1999/xlink" preserveAspectRatio="xMidYMid" width="14" height="14" viewBox="0 0 14 14">
  <defs>
    <style>

      .cls-2 {
        fill: #010101;
      }
    </style>
  </defs>
  <path d="M3.000,14.000 C3.000,14.000 3.000,12.000 3.000,12.000 C3.000,12.000 14.000,12.000 14.000,12.000 C14.000,12.000 14.000,14.000 14.000,14.000 C14.000,14.000 3.000,14.000 3.000,14.000 ZM3.000,8.000 C3.000,8.000 14.000,8.000 14.000,8.000 C14.000,8.000 14.000,10.000 14.000,10.000 C14.000,10.000 3.000,10.000 3.000,10.000 C3.000,10.000 3.000,8.000 3.000,8.000 ZM3.000,4.000 C3.000,4.000 14.000,4.000 14.000,4.000 C14.000,4.000 14.000,6.000 14.000,6.000 C14.000,6.000 3.000,6.000 3.000,6.000 C3.000,6.000 3.000,4.000 3.000,4.000 ZM3.000,0.000 C3.000,0.000 14.000,0.000 14.000,0.000 C14.000,0.000 14.000,2.000 14.000,2.000 C14.000,2.000 3.000,2.000 3.000,2.000 C3.000,2.000 3.000,0.000 3.000,0.000 ZM0.000,12.000 C0.000,12.000 2.000,12.000 2.000,12.000 C2.000,12.000 2.000,14.000 2.000,14.000 C2.000,14.000 0.000,14.000 0.000,14.000 C0.000,14.000 0.000,12.000 0.000,12.000 ZM0.000,8.000 C0.000,8.000 2.000,8.000 2.000,8.000 C2.000,8.000 2.000,10.000 2.000,10.000 C2.000,10.000 0.000,10.000 0.000,10.000 C0.000,10.000 0.000,8.000 0.000,8.000 ZM0.000,4.000 C0.000,4.000 2.000,4.000 2.000,4.000 C2.000,4.000 2.000,6.000 2.000,6.000 C2.000,6.000 0.000,6.000 0.000,6.000 C0.000,6.000 0.000,4.000 0.000,4.000 ZM0.000,0.000 C0.000,0.000 2.000,0.000 2.000,0.000 C2.000,0.000 2.000,2.000 2.000,2.000 C2.000,2.000 0.000,2.000 0.000,2.000 C0.000,2.000 0.000,0.000 0.000,0.000 Z" id="path-1" class="cls-2" fill-rule="evenodd"/>
</svg>
