<svg xmlns="http://www.w3.org/2000/svg" xmlns:xlink="http://www.w3.org/1999/xlink" preserveAspectRatio="xMidYMid" width="16" height="9" viewBox="0 0 16 9">
  <defs>
    <style>

      .cls-2 {
        fill: #000000;
      }
    </style>
  </defs>
  <path d="M12.308,6.376 C12.308,6.376 16.000,8.927 16.000,8.927 C16.000,8.927 16.000,-0.001 16.000,-0.001 C16.000,-0.001 12.308,2.550 12.308,2.550 C12.308,2.550 8.615,2.550 8.615,2.550 C8.615,2.550 4.923,-0.001 4.923,-0.001 C4.923,-0.001 4.923,3.825 4.923,3.825 C4.923,3.825 -0.000,3.825 -0.000,3.825 C-0.000,3.825 -0.000,5.101 -0.000,5.101 C-0.000,5.101 4.923,5.101 4.923,5.101 C4.923,5.101 4.923,8.927 4.923,8.927 C4.923,8.927 8.615,6.376 8.615,6.376 C8.615,6.376 12.308,6.376 12.308,6.376 Z" id="path-1" class="cls-2" fill-rule="evenodd"/>
</svg>
