<svg xmlns="http://www.w3.org/2000/svg" xmlns:xlink="http://www.w3.org/1999/xlink" preserveAspectRatio="xMidYMid" width="16" height="13" viewBox="0 0 16 13">
  <defs>
    <style>

      .cls-2 {
        fill: #010101;
      }
    </style>
  </defs>
  <path d="M15.899,12.000 C15.692,12.580 15.151,13.000 14.500,13.000 C13.849,13.000 13.308,12.580 13.101,12.000 C13.101,12.000 9.000,12.000 9.000,12.000 C9.000,12.000 9.000,11.000 9.000,11.000 C9.000,11.000 13.101,11.000 13.101,11.000 C13.308,10.420 13.849,10.000 14.500,10.000 C15.151,10.000 15.692,10.420 15.899,11.000 C15.899,11.000 16.000,11.000 16.000,11.000 C16.000,11.000 16.000,12.000 16.000,12.000 C16.000,12.000 15.899,12.000 15.899,12.000 ZM12.500,8.000 C11.849,8.000 11.308,7.580 11.101,7.000 C11.101,7.000 9.000,7.000 9.000,7.000 C9.000,7.000 9.000,6.000 9.000,6.000 C9.000,6.000 11.101,6.000 11.101,6.000 C11.308,5.420 11.849,5.000 12.500,5.000 C13.151,5.000 13.692,5.420 13.899,6.000 C13.899,6.000 16.000,6.000 16.000,6.000 C16.000,6.000 16.000,7.000 16.000,7.000 C16.000,7.000 13.899,7.000 13.899,7.000 C13.692,7.580 13.151,8.000 12.500,8.000 ZM10.500,3.000 C9.849,3.000 9.308,2.580 9.101,2.000 C9.101,2.000 9.000,2.000 9.000,2.000 C9.000,2.000 9.000,1.000 9.000,1.000 C9.000,1.000 9.101,1.000 9.101,1.000 C9.308,0.421 9.849,0.000 10.500,0.000 C11.151,0.000 11.692,0.421 11.899,1.000 C11.899,1.000 16.000,1.000 16.000,1.000 C16.000,1.000 16.000,2.000 16.000,2.000 C16.000,2.000 11.899,2.000 11.899,2.000 C11.692,2.580 11.151,3.000 10.500,3.000 ZM0.000,1.000 C0.000,1.000 7.000,6.501 7.000,6.501 C7.000,6.501 0.000,12.000 0.000,12.000 C0.000,12.000 0.000,1.000 0.000,1.000 Z" id="path-1" class="cls-2" fill-rule="evenodd"/>
</svg>
