<svg xmlns="http://www.w3.org/2000/svg" xmlns:xlink="http://www.w3.org/1999/xlink" preserveAspectRatio="xMidYMid" width="14" height="12" viewBox="0 0 14 12">
  <defs>
    <style>

      .cls-2 {
        fill: #0378bd;
      }
    </style>
  </defs>
  <path d="M12.000,12.000 C12.000,12.000 12.000,-0.000 12.000,-0.000 C12.000,-0.000 14.000,-0.000 14.000,-0.000 C14.000,-0.000 14.000,12.000 14.000,12.000 C14.000,12.000 12.000,12.000 12.000,12.000 ZM8.000,2.000 C8.000,2.000 10.000,2.000 10.000,2.000 C10.000,2.000 10.000,12.000 10.000,12.000 C10.000,12.000 8.000,12.000 8.000,12.000 C8.000,12.000 8.000,2.000 8.000,2.000 ZM4.000,4.000 C4.000,4.000 6.000,4.000 6.000,4.000 C6.000,4.000 6.000,12.000 6.000,12.000 C6.000,12.000 4.000,12.000 4.000,12.000 C4.000,12.000 4.000,4.000 4.000,4.000 ZM0.000,6.000 C0.000,6.000 2.000,6.000 2.000,6.000 C2.000,6.000 2.000,12.000 2.000,12.000 C2.000,12.000 0.000,12.000 0.000,12.000 C0.000,12.000 0.000,6.000 0.000,6.000 Z" id="path-1" class="cls-2" fill-rule="evenodd"/>
</svg>
