<svg xmlns="http://www.w3.org/2000/svg" xmlns:xlink="http://www.w3.org/1999/xlink" preserveAspectRatio="xMidYMid" width="14" height="16" viewBox="0 0 14 16">
  <defs>
    <style>

      .cls-2 {
        fill: #010101;
      }
    </style>
  </defs>
  <path d="M0.000,16.000 C0.000,16.000 0.000,-0.011 0.000,-0.011 C0.000,-0.011 11.167,-0.011 11.167,-0.011 C11.167,-0.011 13.960,2.782 13.960,2.782 C13.960,2.782 13.960,16.000 13.960,16.000 C13.960,16.000 0.000,16.000 0.000,16.000 ZM12.991,3.195 C12.991,3.195 10.753,0.988 10.753,0.988 C10.753,0.988 1.000,0.988 1.000,0.988 C1.000,0.988 1.000,15.001 1.000,15.001 C1.000,15.001 12.991,15.001 12.991,15.001 C12.991,15.001 12.991,3.195 12.991,3.195 ZM10.960,6.988 C10.960,6.988 2.000,6.988 2.000,6.988 C2.000,6.988 2.000,1.989 2.000,1.989 C2.000,1.989 10.960,1.989 10.960,1.989 C10.960,1.989 10.960,6.988 10.960,6.988 ZM9.960,2.988 C9.960,2.988 5.969,2.988 5.969,2.988 C5.969,2.988 5.969,5.989 5.969,5.989 C5.969,5.989 9.960,5.989 9.960,5.989 C9.960,5.989 9.960,2.988 9.960,2.988 ZM4.000,14.001 C4.000,14.001 2.000,14.001 2.000,14.001 C2.000,14.001 2.000,12.000 2.000,12.000 C2.000,12.000 4.000,12.000 4.000,12.000 C4.000,12.000 4.000,14.001 4.000,14.001 ZM11.960,14.001 C11.960,14.001 9.991,14.001 9.991,14.001 C9.991,14.001 9.991,12.000 9.991,12.000 C9.991,12.000 11.960,12.000 11.960,12.000 C11.960,12.000 11.960,14.001 11.960,14.001 Z" id="path-1" class="cls-2" fill-rule="evenodd"/>
</svg>
