<?xml version="1.0" encoding="utf-8"?>
<!-- Generator: Adobe Illustrator 15.1.0, SVG Export Plug-In . SVG Version: 6.00 Build 0)  -->
<!DOCTYPE svg PUBLIC "-//W3C//DTD SVG 1.1//EN" "http://www.w3.org/Graphics/SVG/1.1/DTD/svg11.dtd">
<svg version="1.1" id="Layer_1" xmlns="http://www.w3.org/2000/svg" xmlns:xlink="http://www.w3.org/1999/xlink" x="0px" y="0px"
	 width="16px" height="16px" viewBox="0 0 16 16" enable-background="new 0 0 16 16" xml:space="preserve">
<g>
	<path fill="#000" d="M15.165,12.121L16,10.079l-0.943-0.843c-0.358-0.323-0.566-0.782-0.568-1.265l0,0
		c-0.003-0.484,0.2-0.945,0.558-1.271l0.936-0.852l-0.854-2.036l-1.262,0.071c-0.483,0.026-0.956-0.152-1.299-0.494h-0.001
		c-0.342-0.339-0.525-0.809-0.503-1.291l0.06-1.264L10.079,0L9.236,0.942C8.914,1.303,8.455,1.509,7.972,1.511H7.971
		C7.488,1.514,7.026,1.311,6.7,0.954L5.849,0.019L3.813,0.872l0.071,1.263C3.91,2.618,3.731,3.09,3.391,3.434c0,0,0,0,0,0
		C3.051,3.777,2.582,3.958,2.099,3.937l-1.264-0.06L0,5.92l0.943,0.845c0.36,0.32,0.566,0.78,0.569,1.264l0,0
		C1.514,8.513,1.312,8.975,0.954,9.3L0.019,10.15l0.854,2.035l1.262-0.069c0.483-0.027,0.956,0.153,1.299,0.493h0
		c0.343,0.34,0.525,0.81,0.503,1.292l-0.059,1.263L5.92,16l0.839-0.938c0.324-0.362,0.788-0.572,1.275-0.574h0
		c0.48-0.003,0.937,0.198,1.259,0.552l0.858,0.94l2.034-0.854l-0.07-1.263c-0.026-0.482,0.152-0.955,0.492-1.298h0.001
		c0.339-0.343,0.81-0.525,1.292-0.503L15.165,12.121z M6.863,10.781c-1.536-0.63-2.272-2.383-1.644-3.919
		C5.847,5.327,7.601,4.591,9.138,5.22c1.535,0.627,2.271,2.381,1.643,3.917C10.152,10.672,8.398,11.408,6.863,10.781z"/>
</g>
</svg>
