<svg xmlns="http://www.w3.org/2000/svg" xmlns:xlink="http://www.w3.org/1999/xlink" preserveAspectRatio="xMidYMid" width="16" height="16" viewBox="0 0 16 16">
  <defs>
    <style>

      .cls-2 {
        fill: #010101;
      }
    </style>
  </defs>
  <path d="M15.794,3.791 C15.794,3.791 12.026,7.291 12.026,7.291 C12.026,7.291 12.026,5.051 12.026,5.051 C10.026,5.051 8.813,7.682 8.813,9.681 C8.813,9.681 9.135,12.693 9.135,12.693 C7.561,11.988 1.421,2.275 12.133,2.118 C12.026,2.120 12.026,-0.007 12.026,-0.007 C12.026,-0.007 15.794,3.791 15.794,3.791 ZM0.966,15.047 C0.966,15.047 13.997,15.047 13.997,15.047 C13.997,15.047 13.997,7.608 13.997,7.608 C13.997,7.608 14.966,6.835 14.966,6.835 C14.966,6.835 14.966,16.015 14.966,16.015 C14.966,16.015 -0.003,16.015 -0.003,16.015 C-0.003,16.015 -0.003,5.046 -0.003,5.046 C-0.003,5.046 5.077,5.046 5.077,5.046 C5.077,5.046 5.077,6.015 5.077,6.015 C5.077,6.015 0.966,6.015 0.966,6.015 C0.966,6.015 0.966,15.047 0.966,15.047 Z" id="path-1" class="cls-2" fill-rule="evenodd"/>
</svg>
