<svg xmlns="http://www.w3.org/2000/svg" xmlns:xlink="http://www.w3.org/1999/xlink" preserveAspectRatio="xMidYMid" width="14" height="10" viewBox="0 0 14 10">
  <defs>
    <style>

      .cls-2 {
        fill: #010101;
      }
    </style>
  </defs>
  <path d="M7.000,10.012 C3.134,10.012 0.000,5.001 0.000,5.001 C0.000,5.001 3.134,-0.011 7.000,-0.011 C10.866,-0.011 14.000,5.001 14.000,5.001 C14.000,5.001 10.866,10.012 7.000,10.012 ZM7.000,2.001 C5.343,2.001 4.000,3.344 4.000,5.001 C4.000,6.658 5.343,8.001 7.000,8.001 C8.657,8.001 10.000,6.658 10.000,5.001 C10.000,3.344 8.657,2.001 7.000,2.001 ZM7.000,6.510 C6.166,6.510 5.490,5.835 5.490,5.001 C5.490,4.167 6.166,3.491 7.000,3.491 C7.834,3.491 8.510,4.167 8.510,5.001 C8.510,5.835 7.834,6.510 7.000,6.510 Z" id="path-1" class="cls-2" fill-rule="evenodd"/>
</svg>
